<svg xmlns="http://www.w3.org/2000/svg" width="915.39" height="175.516" viewBox="0 0 915.39 175.516">
  <g id="Group_59" data-name="Group 59" transform="translate(-252.021 -145.226)">
    <path id="Path_4" data-name="Path 4" d="M332.5,253.229c0,17.219-.07,32.476.03,47.733.052,7.684-1.907,14.252-10.895,14.078-8.489-.163-9.808-6.887-9.811-13.829-.005-31.365-.425-62.735.127-94.092.5-28.487,18.536-50.635,44.958-56.877,26.84-6.343,53.13,5.59,66.13,30.013,12.515,23.513,7.548,51.881-12.366,70.628C390.861,269.529,363,271.775,338.4,256.713,337.094,255.917,335.766,255.158,332.5,253.229Zm38.707-83.91c-21.568-.3-38.58,16.249-38.691,37.637-.114,21.473,16.517,38.6,37.735,38.876a38.736,38.736,0,0,0,38.992-37.824C409.572,187.1,392.386,169.617,371.2,169.319Z" transform="translate(101.954 5.698)" fill="#2e4cff"/>
    <path id="Path_5" data-name="Path 5" d="M470.021,148.437c32.14.23,58.682,27.387,58.435,59.787-.246,32.43-27.006,58.579-59.646,58.289a58.819,58.819,0,0,1-58.43-59.508A59.463,59.463,0,0,1,470.021,148.437ZM431.476,206.9c-.265,21.9,15.791,38.651,37.291,38.892,21.7.244,38.55-15.994,38.905-37.5a38.057,38.057,0,0,0-37.542-39.041C448.611,168.823,431.742,185.253,431.476,206.9Z" transform="translate(270.7 5.487)" fill="#2e4cff"/>
    <path id="Path_6" data-name="Path 6" d="M468.917,208.23c-.2-32.888,25.6-59.454,58.07-59.793,32.17-.333,59.191,26.214,59.614,58.568a58.879,58.879,0,0,1-58.375,59.511C495.077,266.765,469.115,241.25,468.917,208.23Zm97,.238a38.364,38.364,0,1,0-39.163,37.193C548.573,245.935,565.556,229.805,565.913,208.468Z" transform="translate(370.776 5.484)" fill="#2e4cff"/>
    <path id="Path_7" data-name="Path 7" d="M359.847,218.744c-2.7,27.658-26.371,48-54.439,47.595-27.455-.4-50.369-20.933-52.358-48.416-1.333-18.411-.821-36.957-1.027-55.441-.081-7.139,2.344-13.477,10.312-13.721,8.754-.266,11.331,6.459,11.418,13.989.19,16.089-.054,32.18.187,48.267.287,19.175,12.84,32.855,30.558,33.722,17.912.878,32.847-11.079,34.467-29.826,1.45-16.774.77-33.749.686-50.632-.041-7.925.91-15.593,10.6-15.512,9.648.081,10.67,7.969,10.594,15.737C360.766,172.55,360.82,208.8,359.847,218.744Z" transform="translate(0 6.03)" fill="#2e4cff"/>
    <path id="Path_8" data-name="Path 8" d="M691.779,188.366a43.151,43.151,0,0,0-26.84-37.114,47.87,47.87,0,0,0-19.289-4.037c-14.192,0-26.778,6.056-34.82,15.417a39.581,39.581,0,0,1-3.658-2.55c-15.6-13.36-33.172-16.514-51.551-7.616-18.435,8.925-26.366,24.832-25.957,45.292.36,18.1.268,36.218-.014,54.32-.125,8.012.981,15.623,10.478,15.715,9.259.089,11.2-7.283,11.136-15.374-.146-18.508-.182-37.02.005-55.531.176-17.66,9.364-27.593,24.889-27.393,14.813.19,23.8,10.174,23.962,27.111q.264,28.368.005,56.739c-.057,7.79,2.477,14.485,10.765,14.639,8.4.154,10.938-6.346,10.833-14.287-.244-18.508-.152-37.02-.052-55.531.094-17.926,9.914-29.084,25.184-28.875,14.8.2,23.976,10.938,24.1,28.474.135,18.912.008,37.824.179,56.737.065,7.036,2.265,13.263,10.648,13.263,8.191,0,11-5.926,10.973-13.068C692.682,232.579,693.305,210.394,691.779,188.366Z" transform="translate(474.589 3.399)" fill="#2e4cff"/>
    <path id="Path_9" data-name="Path 9" d="M450.753,155.62l-24.8-10a5.349,5.349,0,0,0-7.3,5.709l.466,3.289c-24.383,7.44-43.216,27.943-45.381,50.692a386.31,386.31,0,0,0-.908,52.865c.027.629.309,2.631.309,2.945a10.094,10.094,0,0,0,20.188,0c0-.853-.349-24.9-.341-35.738.022-28.138,7.356-41.6,29.165-49.293l.241,1.715a5.349,5.349,0,0,0,8.592,3.465l21.058-16.476A5.349,5.349,0,0,0,450.753,155.62Z" transform="translate(205.704 0)" fill="#2e4cff"/>
  </g>
</svg>
